<?xml version="1.0" encoding="UTF-8" standalone="no"?>
<!DOCTYPE svg PUBLIC "-//W3C//DTD SVG 1.1//EN"
 "http://www.w3.org/Graphics/SVG/1.1/DTD/svg11.dtd">
<!-- Generated by graphviz version 14.0.4 (20251115.1723)
 -->
<!-- Title: G Pages: 1 -->
<svg width="528pt" height="441pt"
 viewBox="0.00 0.00 528.00 441.00" xmlns="http://www.w3.org/2000/svg" xmlns:xlink="http://www.w3.org/1999/xlink">
<g id="graph0" class="graph" transform="scale(1 1) rotate(0) translate(4 437)">
<title>G</title><style>.edge>path:hover{stroke-width:8}</style>
<polygon fill="white" stroke="none" points="-4,4 -4,-437 524.09,-437 524.09,4 -4,4"/>
<!-- config -->
<g id="node1" class="node">
<title>config</title><style>.edge>path:hover{stroke-width:8}</style>
<ellipse fill="#f91010" stroke="black" cx="306.72" cy="-415" rx="27" ry="18"/>
<text xml:space="preserve" text-anchor="middle" x="306.72" y="-411.5" font-family="Helvetica,sans-Serif" font-size="10.00" fill="#ffffff">config</text>
</g>
<!-- deviceRobotArm -->
<g id="node2" class="node">
<title>deviceRobotArm</title><style>.edge>path:hover{stroke-width:8}</style>
<ellipse fill="#b3784c" stroke="black" cx="306.72" cy="-343" rx="53.37" ry="18"/>
<text xml:space="preserve" text-anchor="middle" x="306.72" y="-339.5" font-family="Helvetica,sans-Serif" font-size="10.00" fill="#000000">deviceRobotArm</text>
</g>
<!-- config&#45;&gt;deviceRobotArm -->
<g id="edge1" class="edge">
<title>config&#45;&gt;deviceRobotArm</title><style>.edge>path:hover{stroke-width:8}</style>
<path fill="none" stroke="black" d="M306.72,-396.7C306.72,-389.41 306.72,-380.73 306.72,-372.54"/>
<polygon fill="#f91010" stroke="black" points="310.22,-372.62 306.72,-362.62 303.22,-372.62 310.22,-372.62"/>
</g>
<!-- deviceScale -->
<g id="node3" class="node">
<title>deviceScale</title><style>.edge>path:hover{stroke-width:8}</style>
<ellipse fill="#b3a44c" stroke="black" cx="419.72" cy="-343" rx="41.64" ry="18"/>
<text xml:space="preserve" text-anchor="middle" x="419.72" y="-339.5" font-family="Helvetica,sans-Serif" font-size="10.00" fill="#000000">deviceScale</text>
</g>
<!-- config&#45;&gt;deviceScale -->
<g id="edge2" class="edge">
<title>config&#45;&gt;deviceScale</title><style>.edge>path:hover{stroke-width:8}</style>
<path fill="none" stroke="black" d="M326.15,-401.97C342.88,-391.6 367.38,-376.42 387.12,-364.2"/>
<polygon fill="#f91010" stroke="black" points="388.71,-367.33 395.37,-359.09 385.02,-361.38 388.71,-367.33"/>
</g>
<!-- main_py -->
<g id="node5" class="node">
<title>main_py</title><style>.edge>path:hover{stroke-width:8}</style>
<ellipse fill="#6b9f56" stroke="black" cx="489.72" cy="-18" rx="30.37" ry="18"/>
<text xml:space="preserve" text-anchor="middle" x="489.72" y="-14.5" font-family="Helvetica,sans-Serif" font-size="10.00" fill="#000000">main.py</text>
</g>
<!-- config&#45;&gt;main_py -->
<g id="edge3" class="edge">
<title>config&#45;&gt;main_py</title><style>.edge>path:hover{stroke-width:8}</style>
<path fill="none" stroke="black" d="M489.72,-342C505.44,-223.48 441.79,-182.53 489.72,-73"/>
</g>
<!-- winInfo -->
<g id="node8" class="node">
<title>winInfo</title><style>.edge>path:hover{stroke-width:8}</style>
<ellipse fill="#4cb3b3" stroke="black" cx="432.72" cy="-271" rx="28.56" ry="18"/>
<text xml:space="preserve" text-anchor="middle" x="432.72" y="-267.5" font-family="Helvetica,sans-Serif" font-size="10.00" fill="#000000">winInfo</text>
</g>
<!-- config&#45;&gt;winInfo -->
<g id="edge4" class="edge">
<title>config&#45;&gt;winInfo</title><style>.edge>path:hover{stroke-width:8}</style>
<path fill="none" stroke="black" d="M489.72,-342C492.44,-321.48 477.18,-303.5 461.77,-290.9"/>
<polygon fill="#f91010" stroke="black" points="464.11,-288.28 454.02,-285.04 459.89,-293.87 464.11,-288.28"/>
</g>
<!-- winRobotArm -->
<g id="node11" class="node">
<title>winRobotArm</title><style>.edge>path:hover{stroke-width:8}</style>
<ellipse fill="#594096" stroke="black" cx="158.72" cy="-271" rx="45.25" ry="18"/>
<text xml:space="preserve" text-anchor="middle" x="158.72" y="-267.5" font-family="Helvetica,sans-Serif" font-size="10.00" fill="#ffffff">winRobotArm</text>
</g>
<!-- config&#45;&gt;winRobotArm -->
<g id="edge5" class="edge">
<title>config&#45;&gt;winRobotArm</title><style>.edge>path:hover{stroke-width:8}</style>
<path fill="none" stroke="black" d="M290.03,-400.47C277.33,-390 259.57,-374.97 244.72,-361 222.4,-340 198.25,-314.76 181.24,-296.54"/>
<polygon fill="#f91010" stroke="black" points="183.9,-294.26 174.53,-289.31 178.77,-299.02 183.9,-294.26"/>
</g>
<!-- winScale -->
<g id="node12" class="node">
<title>winScale</title><style>.edge>path:hover{stroke-width:8}</style>
<ellipse fill="#8946a4" stroke="black" cx="255.72" cy="-271" rx="33.52" ry="18"/>
<text xml:space="preserve" text-anchor="middle" x="255.72" y="-267.5" font-family="Helvetica,sans-Serif" font-size="10.00" fill="#ffffff">winScale</text>
</g>
<!-- config&#45;&gt;winScale -->
<g id="edge6" class="edge">
<title>config&#45;&gt;winScale</title><style>.edge>path:hover{stroke-width:8}</style>
<path fill="none" stroke="black" d="M489.72,-342C494.89,-303.01 369.68,-283.77 300.34,-276.13"/>
<polygon fill="#f91010" stroke="black" points="300.72,-272.65 290.41,-275.08 299.99,-279.61 300.72,-272.65"/>
<path fill="none" stroke="black" d="M332.58,-409.5C382,-400.16 485.37,-376.79 489.72,-344"/>
</g>
<!-- winStorage -->
<g id="node13" class="node">
<title>winStorage</title><style>.edge>path:hover{stroke-width:8}</style>
<ellipse fill="#ac499d" stroke="black" cx="158.72" cy="-343" rx="38.94" ry="18"/>
<text xml:space="preserve" text-anchor="middle" x="158.72" y="-339.5" font-family="Helvetica,sans-Serif" font-size="10.00" fill="#ffffff">winStorage</text>
</g>
<!-- config&#45;&gt;winStorage -->
<g id="edge7" class="edge">
<title>config&#45;&gt;winStorage</title><style>.edge>path:hover{stroke-width:8}</style>
<path fill="none" stroke="black" d="M285.2,-403.82C261.74,-392.73 223.78,-374.77 195.56,-361.43"/>
<polygon fill="#f91010" stroke="black" points="197.18,-358.32 186.64,-357.21 194.19,-364.65 197.18,-358.32"/>
</g>
<!-- deviceRobotArm&#45;&gt;winRobotArm -->
<g id="edge8" class="edge">
<title>deviceRobotArm&#45;&gt;winRobotArm</title><style>.edge>path:hover{stroke-width:8}</style>
<path fill="none" stroke="black" d="M276.77,-327.83C253.86,-317 222.09,-301.97 197.28,-290.24"/>
<polygon fill="#b3784c" stroke="black" points="199.02,-287.19 188.49,-286.08 196.03,-293.52 199.02,-287.19"/>
</g>
<!-- deviceScale&#45;&gt;winScale -->
<g id="edge9" class="edge">
<title>deviceScale&#45;&gt;winScale</title><style>.edge>path:hover{stroke-width:8}</style>
<path fill="none" stroke="black" d="M390.78,-329.65C363.18,-317.87 321.53,-300.09 291.78,-287.39"/>
<polygon fill="#b3a44c" stroke="black" points="293.37,-284.27 282.8,-283.56 290.62,-290.7 293.37,-284.27"/>
</g>
<!-- guiUtils -->
<g id="node4" class="node">
<title>guiUtils</title><style>.edge>path:hover{stroke-width:8}</style>
<ellipse fill="#a9db2f" stroke="black" cx="91.72" cy="-415" rx="29.47" ry="18"/>
<text xml:space="preserve" text-anchor="middle" x="91.72" y="-411.5" font-family="Helvetica,sans-Serif" font-size="10.00" fill="#000000">guiUtils</text>
</g>
<!-- guiUtils&#45;&gt;winRobotArm -->
<g id="edge10" class="edge">
<title>guiUtils&#45;&gt;winRobotArm</title><style>.edge>path:hover{stroke-width:8}</style>
<path fill="none" stroke="black" d="M91.72,-342C101.56,-324.26 117,-307.7 130.58,-295.15"/>
<polygon fill="#a9db2f" stroke="black" points="132.89,-297.78 138.02,-288.51 128.23,-292.55 132.89,-297.78"/>
<path fill="none" stroke="black" d="M87.28,-396.73C84.44,-381.8 82.76,-360.15 91.72,-344"/>
</g>
<!-- guiUtils&#45;&gt;winScale -->
<g id="edge11" class="edge">
<title>guiUtils&#45;&gt;winScale</title><style>.edge>path:hover{stroke-width:8}</style>
<path fill="none" stroke="black" d="M91.72,-342C114.54,-300.89 196.73,-294.98 212.72,-289 214.75,-288.24 216.83,-287.45 218.93,-286.65"/>
<polygon fill="#a9db2f" stroke="black" points="219.93,-290.01 227.99,-283.13 217.4,-283.49 219.93,-290.01"/>
</g>
<!-- guiUtils&#45;&gt;winStorage -->
<g id="edge12" class="edge">
<title>guiUtils&#45;&gt;winStorage</title><style>.edge>path:hover{stroke-width:8}</style>
<path fill="none" stroke="black" d="M105.93,-399.15C114.57,-390.12 125.81,-378.38 135.7,-368.05"/>
<polygon fill="#a9db2f" stroke="black" points="138.17,-370.53 142.55,-360.89 133.11,-365.69 138.17,-370.53"/>
</g>
<!-- winVials -->
<g id="node14" class="node">
<title>winVials</title><style>.edge>path:hover{stroke-width:8}</style>
<ellipse fill="#b34c78" stroke="black" cx="31.72" cy="-343" rx="31.72" ry="18"/>
<text xml:space="preserve" text-anchor="middle" x="31.72" y="-339.5" font-family="Helvetica,sans-Serif" font-size="10.00" fill="#ffffff">winVials</text>
</g>
<!-- guiUtils&#45;&gt;winVials -->
<g id="edge13" class="edge">
<title>guiUtils&#45;&gt;winVials</title><style>.edge>path:hover{stroke-width:8}</style>
<path fill="none" stroke="black" d="M78.4,-398.46C70.79,-389.58 61.08,-378.25 52.48,-368.22"/>
<polygon fill="#a9db2f" stroke="black" points="55.15,-365.96 45.98,-360.64 49.83,-370.51 55.15,-365.96"/>
</g>
<!-- win -->
<g id="node6" class="node">
<title>win</title><style>.edge>path:hover{stroke-width:8}</style>
<ellipse fill="#439d50" stroke="black" cx="371.72" cy="-127" rx="27" ry="18"/>
<text xml:space="preserve" text-anchor="middle" x="371.72" y="-123.5" font-family="Helvetica,sans-Serif" font-size="10.00" fill="#ffffff">win</text>
</g>
<!-- win&#45;&gt;main_py -->
<g id="edge14" class="edge">
<title>win&#45;&gt;main_py</title><style>.edge>path:hover{stroke-width:8}</style>
<path fill="none" stroke="black" d="M398.6,-123.77C428.5,-119.59 474.59,-107.56 489.72,-73"/>
<path fill="none" stroke="black" d="M489.72,-72C493.04,-64.41 494.03,-55.6 493.91,-47.38"/>
<polygon fill="#439d50" stroke="black" points="497.4,-47.18 493.2,-37.45 490.42,-47.68 497.4,-47.18"/>
</g>
<!-- winAuto -->
<g id="node7" class="node">
<title>winAuto</title><style>.edge>path:hover{stroke-width:8}</style>
<ellipse fill="#53b68c" stroke="black" cx="430.72" cy="-199" rx="30.82" ry="18"/>
<text xml:space="preserve" text-anchor="middle" x="430.72" y="-195.5" font-family="Helvetica,sans-Serif" font-size="10.00" fill="#000000">winAuto</text>
</g>
<!-- winAuto&#45;&gt;win -->
<g id="edge15" class="edge">
<title>winAuto&#45;&gt;win</title><style>.edge>path:hover{stroke-width:8}</style>
<path fill="none" stroke="black" d="M417.63,-182.46C410.04,-173.46 400.32,-161.93 391.79,-151.81"/>
<polygon fill="#53b68c" stroke="black" points="394.47,-149.56 385.35,-144.17 389.12,-154.07 394.47,-149.56"/>
</g>
<!-- winInfo&#45;&gt;win -->
<g id="edge16" class="edge">
<title>winInfo&#45;&gt;win</title><style>.edge>path:hover{stroke-width:8}</style>
<path fill="none" stroke="black" d="M418.17,-255.5C408.95,-245.5 397.52,-231.44 390.72,-217 381.71,-197.86 376.92,-174.4 374.41,-156.37"/>
<polygon fill="#4cb3b3" stroke="black" points="377.91,-156.14 373.22,-146.64 370.96,-156.99 377.91,-156.14"/>
</g>
<!-- winJsonAuto -->
<g id="node9" class="node">
<title>winJsonAuto</title><style>.edge>path:hover{stroke-width:8}</style>
<ellipse fill="#538cb6" stroke="black" cx="300.72" cy="-199" rx="43.45" ry="18"/>
<text xml:space="preserve" text-anchor="middle" x="300.72" y="-195.5" font-family="Helvetica,sans-Serif" font-size="10.00" fill="#000000">winJsonAuto</text>
</g>
<!-- winJsonAuto&#45;&gt;win -->
<g id="edge17" class="edge">
<title>winJsonAuto&#45;&gt;win</title><style>.edge>path:hover{stroke-width:8}</style>
<path fill="none" stroke="black" d="M316.83,-182.12C326.39,-172.69 338.65,-160.61 349.16,-150.25"/>
<polygon fill="#538cb6" stroke="black" points="351.38,-152.97 356.04,-143.46 346.47,-147.98 351.38,-152.97"/>
</g>
<!-- winMan -->
<g id="node10" class="node">
<title>winMan</title><style>.edge>path:hover{stroke-width:8}</style>
<ellipse fill="#4957ac" stroke="black" cx="209.72" cy="-199" rx="29.92" ry="18"/>
<text xml:space="preserve" text-anchor="middle" x="209.72" y="-195.5" font-family="Helvetica,sans-Serif" font-size="10.00" fill="#ffffff">winMan</text>
</g>
<!-- winMan&#45;&gt;win -->
<g id="edge18" class="edge">
<title>winMan&#45;&gt;win</title><style>.edge>path:hover{stroke-width:8}</style>
<path fill="none" stroke="black" d="M233.22,-187.74C238.33,-185.51 243.71,-183.17 248.72,-181 279.39,-167.71 314.39,-152.64 339.19,-141.97"/>
<polygon fill="#4957ac" stroke="black" points="340.29,-145.31 348.1,-138.14 337.53,-138.88 340.29,-145.31"/>
</g>
<!-- winRobotArm&#45;&gt;winMan -->
<g id="edge19" class="edge">
<title>winRobotArm&#45;&gt;winMan</title><style>.edge>path:hover{stroke-width:8}</style>
<path fill="none" stroke="black" d="M170.81,-253.41C176.93,-245.01 184.49,-234.63 191.32,-225.26"/>
<polygon fill="#594096" stroke="black" points="194.12,-227.35 197.18,-217.21 188.46,-223.23 194.12,-227.35"/>
</g>
<!-- winScale&#45;&gt;winMan -->
<g id="edge20" class="edge">
<title>winScale&#45;&gt;winMan</title><style>.edge>path:hover{stroke-width:8}</style>
<path fill="none" stroke="black" d="M245.05,-253.76C239.54,-245.37 232.68,-234.93 226.47,-225.5"/>
<polygon fill="#8946a4" stroke="black" points="229.58,-223.85 221.16,-217.41 223.73,-227.69 229.58,-223.85"/>
</g>
<!-- winStorage&#45;&gt;winRobotArm -->
<g id="edge21" class="edge">
<title>winStorage&#45;&gt;winRobotArm</title><style>.edge>path:hover{stroke-width:8}</style>
<path fill="none" stroke="black" d="M158.72,-324.7C158.72,-317.41 158.72,-308.73 158.72,-300.54"/>
<polygon fill="#ac499d" stroke="black" points="162.22,-300.62 158.72,-290.62 155.22,-300.62 162.22,-300.62"/>
</g>
<!-- winVials&#45;&gt;winRobotArm -->
<g id="edge22" class="edge">
<title>winVials&#45;&gt;winRobotArm</title><style>.edge>path:hover{stroke-width:8}</style>
<path fill="none" stroke="black" d="M53.84,-329.81C72.86,-319.32 100.65,-304.01 122.85,-291.77"/>
<polygon fill="#b34c78" stroke="black" points="124.52,-294.85 131.59,-286.95 121.14,-288.72 124.52,-294.85"/>
</g>
</g>
</svg>
